<?xml version="1.0" standalone="no"?>
<!DOCTYPE svg PUBLIC "-//W3C//DTD SVG 20010904//EN"
 "http://www.w3.org/TR/2001/REC-SVG-20010904/DTD/svg10.dtd">
<svg version="1.0" xmlns="http://www.w3.org/2000/svg"
 width="172.000000pt" height="172.000000pt" viewBox="0 0 172.000000 172.000000"
 preserveAspectRatio="xMidYMid meet">
<metadata>
Created by potrace 1.14, written by Peter Selinger 2001-2017
</metadata>
<g transform="translate(0.000000,172.000000) scale(0.100000,-0.100000)"
fill="#000000" stroke="none">
<path d="M788 1704 c-2 -1 -21 -5 -42 -8 -69 -11 -90 -18 -165 -54 -82 -39
-192 -140 -226 -207 -11 -22 -22 -42 -25 -45 -10 -10 -40 -105 -47 -150 -7
-42 -7 -55 -4 -80 0 -6 35 -10 82 -10 89 0 86 3 56 -70 -5 -14 -11 -29 -12
-35 -2 -5 -11 -30 -22 -55 -41 -93 -43 -99 -30 -107 17 -11 118 -54 142 -60
11 -3 39 -14 63 -24 24 -11 62 -27 85 -35 51 -19 72 -27 117 -47 98 -42 316
-127 327 -127 7 0 13 -4 13 -10 0 -5 6 -10 13 -10 32 0 -7 -114 -56 -162 -64
-62 -151 -82 -236 -53 -28 9 -51 21 -51 26 0 5 -5 9 -11 9 -29 0 -88 102 -89
153 l0 27 -165 0 -166 0 7 -57 c43 -382 452 -611 788 -442 184 93 286 240 312
451 l6 47 -85 3 -85 3 43 110 c62 161 61 149 18 164 -21 7 -54 20 -73 28 -19
8 -44 19 -55 23 -11 4 -51 21 -90 37 -38 15 -171 69 -295 118 -213 86 -225 92
-226 118 -2 42 33 107 77 147 130 117 342 41 373 -132 6 -30 11 -38 29 -39
116 -2 290 1 295 5 5 5 -8 110 -20 156 -45 182 -245 358 -438 386 -45 6 -129
12 -132 8z"/>
</g>
</svg>
